<svg width="2934" height="1955" xmlns="http://www.w3.org/2000/svg" xmlns:xlink="http://www.w3.org/1999/xlink" overflow="hidden"><defs><clipPath id="clip0"><rect x="733" y="260" width="2934" height="1955"/></clipPath><clipPath id="clip1"><rect x="733" y="259" width="2933" height="1956"/></clipPath><clipPath id="clip2"><rect x="733" y="259" width="2933" height="1956"/></clipPath><clipPath id="clip3"><rect x="1040" y="461" width="2579" height="1389"/></clipPath><clipPath id="clip4"><rect x="1040" y="461" width="2579" height="1389"/></clipPath><clipPath id="clip5"><rect x="1040" y="461" width="2579" height="1389"/></clipPath><clipPath id="clip6"><rect x="733" y="259" width="2933" height="1956"/></clipPath><clipPath id="clip7"><rect x="733" y="259" width="2933" height="1956"/></clipPath><clipPath id="clip8"><rect x="733" y="259" width="2933" height="1956"/></clipPath><clipPath id="clip9"><rect x="733" y="259" width="2933" height="1956"/></clipPath><clipPath id="clip10"><rect x="733" y="259" width="2933" height="1956"/></clipPath><clipPath id="clip11"><rect x="733" y="259" width="2933" height="1956"/></clipPath><clipPath id="clip12"><rect x="733" y="259" width="2933" height="1956"/></clipPath><clipPath id="clip13"><rect x="733" y="259" width="2933" height="1956"/></clipPath><clipPath id="clip14"><rect x="733" y="259" width="2933" height="1956"/></clipPath><clipPath id="clip15"><rect x="733" y="259" width="2933" height="1956"/></clipPath><clipPath id="clip16"><rect x="733" y="259" width="2933" height="1956"/></clipPath><clipPath id="clip17"><rect x="733" y="259" width="2933" height="1956"/></clipPath><clipPath id="clip18"><rect x="733" y="259" width="2933" height="1956"/></clipPath><clipPath id="clip19"><rect x="733" y="259" width="2933" height="1956"/></clipPath><clipPath id="clip20"><rect x="733" y="259" width="2933" height="1956"/></clipPath><clipPath id="clip21"><rect x="733" y="259" width="2933" height="1956"/></clipPath><clipPath id="clip22"><rect x="733" y="259" width="2933" height="1956"/></clipPath><clipPath id="clip23"><rect x="733" y="259" width="2933" height="1956"/></clipPath><clipPath id="clip24"><rect x="733" y="259" width="2933" height="1956"/></clipPath><clipPath id="clip25"><rect x="733" y="259" width="2933" height="1956"/></clipPath><clipPath id="clip26"><rect x="733" y="259" width="2933" height="1956"/></clipPath><clipPath id="clip27"><rect x="733" y="259" width="2933" height="1956"/></clipPath><clipPath id="clip28"><rect x="733" y="259" width="2933" height="1956"/></clipPath><clipPath id="clip29"><rect x="733" y="259" width="2933" height="1956"/></clipPath><clipPath id="clip30"><rect x="733" y="259" width="2933" height="1956"/></clipPath><clipPath id="clip31"><rect x="733" y="259" width="2933" height="1956"/></clipPath><clipPath id="clip32"><rect x="733" y="259" width="2933" height="1956"/></clipPath><clipPath id="clip33"><rect x="733" y="259" width="2933" height="1956"/></clipPath></defs><g clip-path="url(#clip0)" transform="translate(-733 -260)"><g clip-path="url(#clip1)"><path d="M1040.5 1648.55 3616.5 1648.55M1040.5 1450.55 3616.5 1450.55M1040.5 1253.54 3616.5 1253.54M1040.5 1055.53 3616.5 1055.53M1040.5 857.528 3616.5 857.528M1040.5 659.522 3616.5 659.522M1040.5 461.5 3616.5 461.5" stroke="#D9D9D9" stroke-width="3.4375" stroke-linejoin="round" stroke-miterlimit="10" fill="none"/></g><g clip-path="url(#clip2)"><path d="M1040.5 1846.5 3616.5 1846.5" stroke="#D9D9D9" stroke-width="3.4375" stroke-linejoin="round" stroke-miterlimit="10" fill="none" fill-rule="evenodd"/></g><g clip-path="url(#clip3)"><path d="M1184 560 1470.05 699.023 1756.06 748.025 2042.07 1293.04 2328.08 1837.06 2615.09 1844.06 2901.1 1845.06 3187.1 1846 3473 1846" stroke="#4472C4" stroke-width="10.3125" stroke-linecap="round" stroke-linejoin="round" stroke-miterlimit="10" fill="none"/></g><g clip-path="url(#clip4)"><path d="M1184 650 1470.05 679.022 1756.06 748.025 2042.07 1204.04 2328.08 1787.06 2615.09 1817.06 2901.1 1832.06 3187.1 1836.06 3473 1838" stroke="#ED7D31" stroke-width="10.3125" stroke-linecap="round" stroke-linejoin="round" stroke-miterlimit="10" fill="none"/></g><g clip-path="url(#clip5)"><path d="M1184 679 1470.05 748.025 1756.06 768.025 2042.07 1204.04 2328.08 1746.06 2615.09 1802.06 2901.1 1815.06 3187.1 1825.06 3473 1829" stroke="#A5A5A5" stroke-width="10.3125" stroke-linecap="round" stroke-linejoin="round" stroke-miterlimit="10" fill="none"/></g><g clip-path="url(#clip6)"><text fill="#595959" font-family="Calibri,Calibri_MSFontService,sans-serif" font-weight="400" font-size="55" transform="matrix(1 0 0 1 962.179 1862)">0</text></g><g clip-path="url(#clip7)"><text fill="#595959" font-family="Calibri,Calibri_MSFontService,sans-serif" font-weight="400" font-size="55" transform="matrix(1 0 0 1 906.583 1664)">200</text></g><g clip-path="url(#clip8)"><text fill="#595959" font-family="Calibri,Calibri_MSFontService,sans-serif" font-weight="400" font-size="55" transform="matrix(1 0 0 1 906.583 1466)">400</text></g><g clip-path="url(#clip9)"><text fill="#595959" font-family="Calibri,Calibri_MSFontService,sans-serif" font-weight="400" font-size="55" transform="matrix(1 0 0 1 906.583 1269)">600</text></g><g clip-path="url(#clip10)"><text fill="#595959" font-family="Calibri,Calibri_MSFontService,sans-serif" font-weight="400" font-size="55" transform="matrix(1 0 0 1 906.583 1071)">800</text></g><g clip-path="url(#clip11)"><text fill="#595959" font-family="Calibri,Calibri_MSFontService,sans-serif" font-weight="400" font-size="55" transform="matrix(1 0 0 1 878.785 873)">1000</text></g><g clip-path="url(#clip12)"><text fill="#595959" font-family="Calibri,Calibri_MSFontService,sans-serif" font-weight="400" font-size="55" transform="matrix(1 0 0 1 878.785 675)">1200</text></g><g clip-path="url(#clip13)"><text fill="#595959" font-family="Calibri,Calibri_MSFontService,sans-serif" font-weight="400" font-size="55" transform="matrix(1 0 0 1 878.785 477)">1400</text></g><g clip-path="url(#clip14)"><text fill="#595959" font-family="Calibri,Calibri_MSFontService,sans-serif" font-weight="400" font-size="55" transform="matrix(1 0 0 1 1170.05 1934)">1</text></g><g clip-path="url(#clip15)"><text fill="#595959" font-family="Calibri,Calibri_MSFontService,sans-serif" font-weight="400" font-size="55" transform="matrix(1 0 0 1 1442.3 1934)">10</text></g><g clip-path="url(#clip16)"><text fill="#595959" font-family="Calibri,Calibri_MSFontService,sans-serif" font-weight="400" font-size="55" transform="matrix(1 0 0 1 1714.55 1934)">100</text></g><g clip-path="url(#clip17)"><text fill="#595959" font-family="Calibri,Calibri_MSFontService,sans-serif" font-weight="400" font-size="55" transform="matrix(1 0 0 1 1986.81 1934)">1000</text></g><g clip-path="url(#clip18)"><text fill="#595959" font-family="Calibri,Calibri_MSFontService,sans-serif" font-weight="400" font-size="55" transform="matrix(1 0 0 1 2259.06 1934)">10000</text></g><g clip-path="url(#clip19)"><text fill="#595959" font-family="Calibri,Calibri_MSFontService,sans-serif" font-weight="400" font-size="55" transform="matrix(1 0 0 1 2545.22 1934)">20000</text></g><g clip-path="url(#clip20)"><text fill="#595959" font-family="Calibri,Calibri_MSFontService,sans-serif" font-weight="400" font-size="55" transform="matrix(1 0 0 1 2831.37 1934)">30000</text></g><g clip-path="url(#clip21)"><text fill="#595959" font-family="Calibri,Calibri_MSFontService,sans-serif" font-weight="400" font-size="55" transform="matrix(1 0 0 1 3117.52 1934)">40000</text></g><g clip-path="url(#clip22)"><text fill="#595959" font-family="Calibri,Calibri_MSFontService,sans-serif" font-weight="400" font-size="55" transform="matrix(1 0 0 1 3403.68 1934)">50000</text></g><g clip-path="url(#clip23)"><text fill="#595959" font-family="Calibri,Calibri_MSFontService,sans-serif" font-weight="400" font-size="61" transform="matrix(6.12323e-17 -1 1 6.12323e-17 848.627 1196)">Fps</text></g><g clip-path="url(#clip24)"><text fill="#595959" font-family="Calibri,Calibri_MSFontService,sans-serif" font-weight="400" font-size="61" transform="matrix(1 0 0 1 2208.64 2020)">Particulas</text></g><g clip-path="url(#clip25)"><text fill="#595959" font-family="Calibri,Calibri_MSFontService,sans-serif" font-weight="400" font-size="85" transform="matrix(1 0 0 1 1822.26 375)">Iteration </text></g><g clip-path="url(#clip26)"><text fill="#595959" font-family="Calibri,Calibri_MSFontService,sans-serif" font-weight="400" font-size="85" transform="matrix(1 0 0 1 2123.34 375)">vs</text></g><g clip-path="url(#clip27)"><text fill="#595959" font-family="Calibri,Calibri_MSFontService,sans-serif" font-weight="400" font-size="85" transform="matrix(1 0 0 1 2214.21 375)">Quadtrees</text></g><g clip-path="url(#clip28)"><path d="M1544 2141 1632 2141" stroke="#4472C4" stroke-width="10.3125" stroke-linecap="round" stroke-linejoin="round" stroke-miterlimit="10" fill="none" fill-rule="evenodd"/></g><g clip-path="url(#clip29)"><text fill="#595959" font-family="Calibri,Calibri_MSFontService,sans-serif" font-weight="400" font-size="55" transform="matrix(1 0 0 1 1640.9 2156)">Iteration</text></g><g clip-path="url(#clip30)"><path d="M1898 2141 1986 2141" stroke="#ED7D31" stroke-width="10.3125" stroke-linecap="round" stroke-linejoin="round" stroke-miterlimit="10" fill="none" fill-rule="evenodd"/></g><g clip-path="url(#clip31)"><text fill="#595959" font-family="Calibri,Calibri_MSFontService,sans-serif" font-weight="400" font-size="55" transform="matrix(1 0 0 1 1995.19 2156)">Quadtree</text></g><g clip-path="url(#clip32)"><path d="M2282 2141 2370 2141" stroke="#A5A5A5" stroke-width="10.3125" stroke-linecap="round" stroke-linejoin="round" stroke-miterlimit="10" fill="none" fill-rule="evenodd"/></g><g clip-path="url(#clip33)"><text fill="#595959" font-family="Calibri,Calibri_MSFontService,sans-serif" font-weight="400" font-size="55" transform="matrix(1 0 0 1 2379.14 2156)">Quadtree Multithread</text></g></g></svg>