<svg width="2934" height="1955" xmlns="http://www.w3.org/2000/svg" xmlns:xlink="http://www.w3.org/1999/xlink" overflow="hidden"><defs><clipPath id="clip0"><rect x="733" y="260" width="2934" height="1955"/></clipPath><clipPath id="clip1"><rect x="733" y="259" width="2933" height="1956"/></clipPath><clipPath id="clip2"><rect x="733" y="259" width="2933" height="1956"/></clipPath><clipPath id="clip3"><rect x="1013" y="461" width="2606" height="1389"/></clipPath><clipPath id="clip4"><rect x="1013" y="461" width="2606" height="1389"/></clipPath><clipPath id="clip5"><rect x="1013" y="461" width="2606" height="1389"/></clipPath><clipPath id="clip6"><rect x="733" y="259" width="2933" height="1956"/></clipPath><clipPath id="clip7"><rect x="733" y="259" width="2933" height="1956"/></clipPath><clipPath id="clip8"><rect x="733" y="259" width="2933" height="1956"/></clipPath><clipPath id="clip9"><rect x="733" y="259" width="2933" height="1956"/></clipPath><clipPath id="clip10"><rect x="733" y="259" width="2933" height="1956"/></clipPath><clipPath id="clip11"><rect x="733" y="259" width="2933" height="1956"/></clipPath><clipPath id="clip12"><rect x="733" y="259" width="2933" height="1956"/></clipPath><clipPath id="clip13"><rect x="733" y="259" width="2933" height="1956"/></clipPath><clipPath id="clip14"><rect x="733" y="259" width="2933" height="1956"/></clipPath><clipPath id="clip15"><rect x="733" y="259" width="2933" height="1956"/></clipPath><clipPath id="clip16"><rect x="733" y="259" width="2933" height="1956"/></clipPath><clipPath id="clip17"><rect x="733" y="259" width="2933" height="1956"/></clipPath><clipPath id="clip18"><rect x="733" y="259" width="2933" height="1956"/></clipPath><clipPath id="clip19"><rect x="733" y="259" width="2933" height="1956"/></clipPath><clipPath id="clip20"><rect x="733" y="259" width="2933" height="1956"/></clipPath><clipPath id="clip21"><rect x="733" y="259" width="2933" height="1956"/></clipPath><clipPath id="clip22"><rect x="733" y="259" width="2933" height="1956"/></clipPath><clipPath id="clip23"><rect x="733" y="259" width="2933" height="1956"/></clipPath><clipPath id="clip24"><rect x="733" y="259" width="2933" height="1956"/></clipPath><clipPath id="clip25"><rect x="733" y="259" width="2933" height="1956"/></clipPath><clipPath id="clip26"><rect x="733" y="259" width="2933" height="1956"/></clipPath><clipPath id="clip27"><rect x="733" y="259" width="2933" height="1956"/></clipPath><clipPath id="clip28"><rect x="733" y="259" width="2933" height="1956"/></clipPath><clipPath id="clip29"><rect x="733" y="259" width="2933" height="1956"/></clipPath><clipPath id="clip30"><rect x="733" y="259" width="2933" height="1956"/></clipPath><clipPath id="clip31"><rect x="733" y="259" width="2933" height="1956"/></clipPath><clipPath id="clip32"><rect x="733" y="259" width="2933" height="1956"/></clipPath><clipPath id="clip33"><rect x="733" y="259" width="2933" height="1956"/></clipPath><clipPath id="clip34"><rect x="733" y="259" width="2933" height="1956"/></clipPath><clipPath id="clip35"><rect x="733" y="259" width="2933" height="1956"/></clipPath><clipPath id="clip36"><rect x="733" y="259" width="2933" height="1956"/></clipPath><clipPath id="clip37"><rect x="733" y="259" width="2933" height="1956"/></clipPath><clipPath id="clip38"><rect x="733" y="259" width="2933" height="1956"/></clipPath><clipPath id="clip39"><rect x="733" y="259" width="2933" height="1956"/></clipPath><clipPath id="clip40"><rect x="733" y="259" width="2933" height="1956"/></clipPath><clipPath id="clip41"><rect x="733" y="259" width="2933" height="1956"/></clipPath><clipPath id="clip42"><rect x="733" y="259" width="2933" height="1956"/></clipPath><clipPath id="clip43"><rect x="733" y="259" width="2933" height="1956"/></clipPath></defs><g clip-path="url(#clip0)" transform="translate(-733 -260)"><g clip-path="url(#clip1)"><path d="M1013.5 1615.55 3616.5 1615.55M1013.5 1384.55 3616.5 1384.55M1013.5 1154.54 3616.5 1154.54M1013.5 923.53 3616.5 923.53M1013.5 692.523 3616.5 692.523M1013.5 461.5 3616.5 461.5" stroke="#D9D9D9" stroke-width="3.4375" stroke-linejoin="round" stroke-miterlimit="10" fill="none"/></g><g clip-path="url(#clip2)"><path d="M1013.5 1846.5 3616.5 1846.5" stroke="#D9D9D9" stroke-width="3.4375" stroke-linejoin="round" stroke-miterlimit="10" fill="none" fill-rule="evenodd"/></g><g clip-path="url(#clip3)"><path d="M1273 1731 1794.06 1812.06 2315.08 1824.06 2835.09 1835 3356 1835" stroke="#4472C4" stroke-width="10.3125" stroke-linecap="round" stroke-linejoin="round" stroke-miterlimit="10" fill="none"/></g><g clip-path="url(#clip4)"><path d="M1273 1154 1794.06 1500.05 2315.08 1674.05 2835.09 1720.06 3356 1743" stroke="#ED7D31" stroke-width="10.3125" stroke-linecap="round" stroke-linejoin="round" stroke-miterlimit="10" fill="none"/></g><g clip-path="url(#clip5)"><path d="M1273 669 1794.06 1327.04 2315.08 1477.05 2835.09 1593.05 3356 1639" stroke="#A5A5A5" stroke-width="10.3125" stroke-linecap="round" stroke-linejoin="round" stroke-miterlimit="10" fill="none"/></g><g clip-path="url(#clip6)"><text fill="#404040" font-family="Calibri,Calibri_MSFontService,sans-serif" font-weight="400" font-size="55" transform="matrix(1 0 0 1 1245.59 1684)">10</text></g><g clip-path="url(#clip7)"><text fill="#404040" font-family="Calibri,Calibri_MSFontService,sans-serif" font-weight="400" font-size="55" transform="matrix(1 0 0 1 1780.13 1765)">3</text></g><g clip-path="url(#clip8)"><text fill="#404040" font-family="Calibri,Calibri_MSFontService,sans-serif" font-weight="400" font-size="55" transform="matrix(1 0 0 1 2300.76 1777)">2</text></g><g clip-path="url(#clip9)"><text fill="#404040" font-family="Calibri,Calibri_MSFontService,sans-serif" font-weight="400" font-size="55" transform="matrix(1 0 0 1 2821.4 1788)">1</text></g><g clip-path="url(#clip10)"><text fill="#404040" font-family="Calibri,Calibri_MSFontService,sans-serif" font-weight="400" font-size="55" transform="matrix(1 0 0 1 3342.03 1788)">1</text></g><g clip-path="url(#clip11)"><text fill="#404040" font-family="Calibri,Calibri_MSFontService,sans-serif" font-weight="400" font-size="55" transform="matrix(1 0 0 1 1245.59 1107)">60</text></g><g clip-path="url(#clip12)"><text fill="#404040" font-family="Calibri,Calibri_MSFontService,sans-serif" font-weight="400" font-size="55" transform="matrix(1 0 0 1 1766.23 1453)">30</text></g><g clip-path="url(#clip13)"><text fill="#404040" font-family="Calibri,Calibri_MSFontService,sans-serif" font-weight="400" font-size="55" transform="matrix(1 0 0 1 2286.86 1627)">15</text></g><g clip-path="url(#clip14)"><text fill="#404040" font-family="Calibri,Calibri_MSFontService,sans-serif" font-weight="400" font-size="55" transform="matrix(1 0 0 1 2807.5 1673)">11</text></g><g clip-path="url(#clip15)"><text fill="#404040" font-family="Calibri,Calibri_MSFontService,sans-serif" font-weight="400" font-size="55" transform="matrix(1 0 0 1 3342.03 1696)">9</text></g><g clip-path="url(#clip16)"><text fill="#404040" font-family="Calibri,Calibri_MSFontService,sans-serif" font-weight="400" font-size="55" transform="matrix(1 0 0 1 1231.69 622)">102</text></g><g clip-path="url(#clip17)"><text fill="#404040" font-family="Calibri,Calibri_MSFontService,sans-serif" font-weight="400" font-size="55" transform="matrix(1 0 0 1 1766.23 1280)">45</text></g><g clip-path="url(#clip18)"><text fill="#404040" font-family="Calibri,Calibri_MSFontService,sans-serif" font-weight="400" font-size="55" transform="matrix(1 0 0 1 2286.86 1430)">32</text></g><g clip-path="url(#clip19)"><text fill="#404040" font-family="Calibri,Calibri_MSFontService,sans-serif" font-weight="400" font-size="55" transform="matrix(1 0 0 1 2807.5 1546)">22</text></g><g clip-path="url(#clip20)"><text fill="#404040" font-family="Calibri,Calibri_MSFontService,sans-serif" font-weight="400" font-size="55" transform="matrix(1 0 0 1 3328.13 1592)">18</text></g><g clip-path="url(#clip21)"><text fill="#595959" font-family="Calibri,Calibri_MSFontService,sans-serif" font-weight="400" font-size="55" transform="matrix(1 0 0 1 934.381 1862)">0</text></g><g clip-path="url(#clip22)"><text fill="#595959" font-family="Calibri,Calibri_MSFontService,sans-serif" font-weight="400" font-size="55" transform="matrix(1 0 0 1 906.583 1631)">20</text></g><g clip-path="url(#clip23)"><text fill="#595959" font-family="Calibri,Calibri_MSFontService,sans-serif" font-weight="400" font-size="55" transform="matrix(1 0 0 1 906.583 1401)">40</text></g><g clip-path="url(#clip24)"><text fill="#595959" font-family="Calibri,Calibri_MSFontService,sans-serif" font-weight="400" font-size="55" transform="matrix(1 0 0 1 906.583 1170)">60</text></g><g clip-path="url(#clip25)"><text fill="#595959" font-family="Calibri,Calibri_MSFontService,sans-serif" font-weight="400" font-size="55" transform="matrix(1 0 0 1 906.583 939)">80</text></g><g clip-path="url(#clip26)"><text fill="#595959" font-family="Calibri,Calibri_MSFontService,sans-serif" font-weight="400" font-size="55" transform="matrix(1 0 0 1 878.785 708)">100</text></g><g clip-path="url(#clip27)"><text fill="#595959" font-family="Calibri,Calibri_MSFontService,sans-serif" font-weight="400" font-size="55" transform="matrix(1 0 0 1 878.785 477)">120</text></g><g clip-path="url(#clip28)"><text fill="#595959" font-family="Calibri,Calibri_MSFontService,sans-serif" font-weight="400" font-size="55" transform="matrix(1 0 0 1 1203.89 1934)">10000</text></g><g clip-path="url(#clip29)"><text fill="#595959" font-family="Calibri,Calibri_MSFontService,sans-serif" font-weight="400" font-size="55" transform="matrix(1 0 0 1 1724.53 1934)">20000</text></g><g clip-path="url(#clip30)"><text fill="#595959" font-family="Calibri,Calibri_MSFontService,sans-serif" font-weight="400" font-size="55" transform="matrix(1 0 0 1 2245.16 1934)">30000</text></g><g clip-path="url(#clip31)"><text fill="#595959" font-family="Calibri,Calibri_MSFontService,sans-serif" font-weight="400" font-size="55" transform="matrix(1 0 0 1 2765.8 1934)">40000</text></g><g clip-path="url(#clip32)"><text fill="#595959" font-family="Calibri,Calibri_MSFontService,sans-serif" font-weight="400" font-size="55" transform="matrix(1 0 0 1 3286.44 1934)">50000</text></g><g clip-path="url(#clip33)"><text fill="#595959" font-family="Calibri,Calibri_MSFontService,sans-serif" font-weight="400" font-size="61" transform="matrix(6.12323e-17 -1 1 6.12323e-17 848.627 1196)">Fps</text></g><g clip-path="url(#clip34)"><text fill="#595959" font-family="Calibri,Calibri_MSFontService,sans-serif" font-weight="400" font-size="61" transform="matrix(1 0 0 1 2194.74 2020)">Particles </text></g><g clip-path="url(#clip35)"><text fill="#595959" font-family="Calibri,Calibri_MSFontService,sans-serif" font-weight="400" font-size="85" transform="matrix(1 0 0 1 1822.26 375)">Iteration </text></g><g clip-path="url(#clip36)"><text fill="#595959" font-family="Calibri,Calibri_MSFontService,sans-serif" font-weight="400" font-size="85" transform="matrix(1 0 0 1 2123.34 375)">vs</text></g><g clip-path="url(#clip37)"><text fill="#595959" font-family="Calibri,Calibri_MSFontService,sans-serif" font-weight="400" font-size="85" transform="matrix(1 0 0 1 2214.21 375)">Quadtrees</text></g><g clip-path="url(#clip38)"><path d="M1544 2141 1632 2141" stroke="#4472C4" stroke-width="10.3125" stroke-linecap="round" stroke-linejoin="round" stroke-miterlimit="10" fill="none" fill-rule="evenodd"/></g><g clip-path="url(#clip39)"><text fill="#595959" font-family="Calibri,Calibri_MSFontService,sans-serif" font-weight="400" font-size="55" transform="matrix(1 0 0 1 1640.9 2156)">Iteration</text></g><g clip-path="url(#clip40)"><path d="M1898 2141 1986 2141" stroke="#ED7D31" stroke-width="10.3125" stroke-linecap="round" stroke-linejoin="round" stroke-miterlimit="10" fill="none" fill-rule="evenodd"/></g><g clip-path="url(#clip41)"><text fill="#595959" font-family="Calibri,Calibri_MSFontService,sans-serif" font-weight="400" font-size="55" transform="matrix(1 0 0 1 1995.19 2156)">Quadtree</text></g><g clip-path="url(#clip42)"><path d="M2282 2141 2370 2141" stroke="#A5A5A5" stroke-width="10.3125" stroke-linecap="round" stroke-linejoin="round" stroke-miterlimit="10" fill="none" fill-rule="evenodd"/></g><g clip-path="url(#clip43)"><text fill="#595959" font-family="Calibri,Calibri_MSFontService,sans-serif" font-weight="400" font-size="55" transform="matrix(1 0 0 1 2379.14 2156)">Quadtree Multithread</text></g></g></svg>